HIERARCHY
ROOT Hips
{
	OFFSET 0.00000 0.00000 0.00000
	CHANNELS 6 Xposition Yposition Zposition Zrotation Yrotation Xrotation 
	JOINT LHipJoint
	{
		OFFSET 0 0 0
		CHANNELS 3 Zrotation Yrotation Xrotation
		JOINT LeftUpLeg
		{
			OFFSET 1.48416 -1.82041 0.59464
			CHANNELS 3 Zrotation Yrotation Xrotation
			JOINT LeftLeg
			{
				OFFSET 2.43280 -6.68407 0.00000
				CHANNELS 3 Zrotation Yrotation Xrotation
				JOINT LeftFoot
				{
					OFFSET 2.68325 -7.37216 0.00000
					CHANNELS 3 Zrotation Yrotation Xrotation
					JOINT LeftToeBase
					{
						OFFSET 0.15365 -0.42214 1.91990
						CHANNELS 3 Zrotation Yrotation Xrotation
						End Site
						{
							OFFSET 0.00000 -0.00000 0.99320
						}
					}
				}
			}
		}
	}
	JOINT RHipJoint
	{
		OFFSET 0 0 0
		CHANNELS 3 Zrotation Yrotation Xrotation
		JOINT RightUpLeg
		{
			OFFSET -1.70852 -1.82040 0.59464
			CHANNELS 3 Zrotation Yrotation Xrotation
			JOINT RightLeg
			{
				OFFSET -2.50396 -6.87957 0.00000
				CHANNELS 3 Zrotation Yrotation Xrotation
				JOINT RightFoot
				{
					OFFSET -2.67204 -7.34139 0.00000
					CHANNELS 3 Zrotation Yrotation Xrotation
					JOINT RightToeBase
					{
						OFFSET -0.17346 -0.47657 2.02009
						CHANNELS 3 Zrotation Yrotation Xrotation
						End Site
						{
							OFFSET -0.00000 -0.00000 1.04609
						}
					}
				}
			}
		}
	}
	JOINT LowerBack
	{
		OFFSET 0 0 0
		CHANNELS 3 Zrotation Yrotation Xrotation
		JOINT Spine
		{
			OFFSET -0.01022 1.99636 -0.30653
			CHANNELS 3 Zrotation Yrotation Xrotation
			JOINT Spine1
			{
				OFFSET -0.01683 2.01212 0.04808
				CHANNELS 3 Zrotation Yrotation Xrotation
				JOINT Neck
				{
					OFFSET 0 0 0
					CHANNELS 3 Zrotation Yrotation Xrotation
					JOINT Neck1
					{
						OFFSET -0.03080 1.91178 0.03911
						CHANNELS 3 Zrotation Yrotation Xrotation
						JOINT Head
						{
							OFFSET 0.10605 1.89839 -0.23433
							CHANNELS 3 Zrotation Yrotation Xrotation
							End Site
							{
								OFFSET 0.03474 1.92469 -0.08609
							}
						}
					}
				}
				JOINT LeftShoulder
				{
					OFFSET 0 0 0
					CHANNELS 3 Zrotation Yrotation Xrotation
					JOINT LeftArm
					{
						OFFSET 3.78977 1.27972 -0.24661
						CHANNELS 3 Zrotation Yrotation Xrotation
						JOINT LeftForeArm
						{
							OFFSET 5.64147 -0.00000 -0.00000
							CHANNELS 3 Zrotation Yrotation Xrotation
							JOINT LeftHand
							{
								OFFSET 2.86444 -0.00000 -0.00000
								CHANNELS 3 Zrotation Yrotation Xrotation
								JOINT LeftFingerBase
								{
									OFFSET 0 0 0
									CHANNELS 3 Zrotation Yrotation Xrotation
									JOINT LeftHandIndex1
									{
										OFFSET 0.72212 -0.00000 -0.00000
										CHANNELS 3 Zrotation Yrotation Xrotation
										End Site
										{
											OFFSET 0.58219 -0.00000 -0.00000
										}
									}
								}
								JOINT LThumb
								{
									OFFSET 0 0 0
									CHANNELS 3 Zrotation Yrotation Xrotation
									End Site
									{
										OFFSET 0.59108 -0.00000 0.59108
									}
								}
							}
						}
					}
				}
				JOINT RightShoulder
				{
					OFFSET 0 0 0
					CHANNELS 3 Zrotation Yrotation Xrotation
					JOINT RightArm
					{
						OFFSET -3.41176 1.18605 -0.57927
						CHANNELS 3 Zrotation Yrotation Xrotation
						JOINT RightForeArm
						{
							OFFSET -5.44729 -0.00000 -0.00000
							CHANNELS 3 Zrotation Yrotation Xrotation
							JOINT RightHand
							{
								OFFSET -3.08821 -0.00000 -0.00000
								CHANNELS 3 Zrotation Yrotation Xrotation
								JOINT RightFingerBase
								{
									OFFSET 0 0 0
									CHANNELS 3 Zrotation Yrotation Xrotation
									JOINT RightHandIndex1
									{
										OFFSET -0.82105 -0.00000 -0.00000
										CHANNELS 3 Zrotation Yrotation Xrotation
										End Site
										{
											OFFSET -0.66195 -0.00000 -0.00000
										}
									}
								}
								JOINT RThumb
								{
									OFFSET 0 0 0
									CHANNELS 3 Zrotation Yrotation Xrotation
									End Site
									{
										OFFSET -0.67206 -0.00000 0.67206
									}
								}
							}
						}
					}
				}
			}
		}
	}
}
MOTION
Frames: 11
Frame Time: .0083333
2.7473 17.6769 0.0519 0 0 0 0 0 0 -21 0 0 0 0 0 0 0 0 0 0 0 0 0 0 21 0 0 0 0 0 0 0 0 0 0 0 0 0 0 0 0 0 0 0 0 0 0 -16 0 0 21 0 0 11 0 0 0 -8 0 0 0 0 0 0 0 0 0 0 0 0 0 0 0 0 0 0 0 0 8 0 0 0 0 0 0 0 0 0 0 0 0 0 0 0 0 0
2.7473 17.6769 0.0519 -174.1670 67.8630 -174.2370 0.0000 0.0000 0.0000 -14.8712 -6.5231 -6.8244 0.8663 5.9347 16.5952 -0.8559 -16.9320 0.7473 0.3657 3.8848 10.7528 0.0000 0.0000 0.0000 21.0118 -10.7634 5.3472 -0.0151 -0.7941 2.1824 -1.0646 -6.3203 -22.7448 -0.0033 -0.3718 1.0215 1.4853 0.8497 5.1169 -2.6557 1.1574 -3.9760 -3.7526 0.4513 -6.9487 -3.9153 -2.7733 -6.8449 6.4387 -4.0050 13.6082 2.3944 -1.6442 5.4274 -0.0000 -0.0000 0.0000 -66.4722 -31.4554 46.2614 101.3387 -59.5086 -69.8034 -0.0000 0.0000 -62.3163 -8.3320 23.5531 -3.3493 -7.1250 0.0000 -0.0000 -36.4705 49.7755 -4.8752 -0.0000 -0.0000 0.0000 85.0175 -10.3353 28.9621 -16.9664 26.8134 -4.0721 0.0000 0.0000 18.9648 -5.4988 9.2529 -0.8868 7.1250 -0.0000 -0.0000 15.2763 -20.8127 9.1779
2.7405 17.6727 0.0585 -174.3730 67.3951 -174.4140 0.0000 0.0000 0.0000 -14.9034 -6.8008 -6.9942 0.8860 6.0000 16.7844 -0.8799 -17.1335 0.8409 0.3476 3.7881 10.4813 0.0000 0.0000 0.0000 20.8804 -11.6198 6.3664 0.0000 -0.0000 0.0000 -0.9326 -6.9922 -22.0616 -0.0038 -0.3955 1.0867 1.4282 0.8390 5.1506 -2.6718 1.1381 -3.9773 -3.7364 0.4441 -6.9716 -4.0430 -2.7518 -6.8882 6.5113 -3.9765 14.0592 2.4422 -1.6187 5.5772 0.0000 0.0000 0.0000 -65.7249 -33.5911 45.2798 104.8749 -59.1472 -72.8451 -0.0000 0.0000 -63.1996 -8.9431 23.2338 -3.5523 -7.1250 0.0000 -0.0000 -36.7854 49.4185 -4.5690 0.0000 0.0000 0.0000 84.8746 -10.5296 29.0950 -17.0516 26.9257 -4.1107 0.0000 0.0000 18.9084 -5.4145 9.2345 -0.8714 7.1250 -0.0000 -0.0000 15.3369 -20.8325 9.2099
2.7340 17.6729 0.0670 -174.2750 66.9788 -174.2640 0.0000 0.0000 0.0000 -14.7848 -6.9748 -7.1959 0.8922 6.0207 16.8444 -0.9088 -17.2971 1.2093 0.3747 3.9314 10.8839 0.0000 0.0000 0.0000 21.0038 -11.9903 6.1821 0.0000 -0.0000 0.0000 -0.9431 -6.8869 -22.0789 -0.0053 -0.4702 1.2921 1.4704 0.8552 5.2081 -2.6883 1.1639 -4.0620 -3.7846 0.4521 -7.0927 -4.0662 -2.7341 -6.6898 6.5347 -3.9567 14.3959 2.4591 -1.6003 5.6475 0.0000 0.0000 0.0000 -64.7979 -35.7399 44.2998 108.2229 -58.7073 -75.7130 -0.0000 0.0000 -64.1382 -8.9503 23.2419 -3.5564 -7.1250 0.0000 -0.0000 -36.7968 49.4241 -4.5765 0.0000 0.0000 0.0000 84.8702 -10.8569 28.9797 -17.1474 27.0517 -4.1542 0.0000 0.0000 19.0399 -5.2840 9.2641 -0.8530 7.1250 -0.0000 -0.0000 15.4255 -20.8069 9.2764
2.7285 17.6739 0.0738 -174.1730 66.6028 -174.1290 0.0000 0.0000 0.0000 -14.6797 -7.1248 -7.3595 0.8967 6.0354 16.8873 -0.9345 -17.4366 1.5659 0.4206 4.1627 11.5348 0.0000 0.0000 0.0000 21.1200 -12.3239 6.0148 0.0000 -0.0000 0.0000 -0.9382 -6.8661 -22.0206 -0.0040 -0.4096 1.1256 1.5338 0.8559 5.2603 -2.7027 1.1705 -4.1178 -3.8396 0.4501 -7.1810 -4.1831 -2.6924 -6.5142 6.6616 -3.9057 14.6411 2.5260 -1.5666 5.6951 0.0000 0.0000 0.0000 -63.7837 -37.9635 43.0119 111.4944 -58.1802 -78.5010 -0.0000 0.0000 -65.0828 -8.8597 23.5013 -3.5568 -7.1250 0.0000 -0.0000 -36.8890 49.6510 -4.8208 0.0000 0.0000 0.0000 84.8545 -11.1153 28.9443 -17.2045 27.1266 -4.1802 0.0000 0.0000 19.1430 -5.2163 9.2516 -0.8409 7.1250 -0.0000 -0.0000 15.4740 -20.8206 9.3028
2.7226 17.6746 0.0787 -174.2550 66.2085 -174.1930 0.0000 0.0000 0.0000 -14.6761 -7.3307 -7.3991 0.8931 6.0234 16.8523 -0.9503 -17.5232 1.7875 0.4258 4.1877 11.6053 0.0000 0.0000 0.0000 21.1420 -12.6951 5.8820 0.0000 -0.0000 0.0000 -0.9482 -6.7926 -22.0562 -0.0054 -0.4758 1.3075 1.5479 0.8173 5.3532 -2.7175 1.1199 -4.1528 -3.8614 0.4222 -7.2760 -4.2193 -2.6258 -6.4046 6.6769 -3.8145 14.8871 2.5465 -1.5164 5.7485 0.0000 0.0000 0.0000 -62.7460 -40.1600 41.4667 114.2550 -57.6560 -80.8402 -0.0000 0.0000 -65.9599 -9.0144 23.9223 -3.6807 -7.1250 0.0000 -0.0000 -37.3009 49.9712 -5.2179 0.0000 0.0000 0.0000 84.7312 -11.3072 29.1875 -17.2393 27.1722 -4.1961 0.0000 0.0000 19.0614 -5.1629 9.2663 -0.8336 7.1250 -0.0000 -0.0000 15.5099 -20.8075 9.3309
2.7152 17.6784 0.0847 -174.3320 65.8463 -174.2190 0.0000 0.0000 0.0000 -14.6625 -7.5226 -7.4826 0.8897 6.0123 16.8200 -0.9659 -17.6026 2.0370 0.4307 4.2117 11.6730 0.0000 0.0000 0.0000 21.1686 -13.0188 5.7133 0.0000 -0.0000 0.0000 -0.9691 -6.6816 -22.1631 -0.0194 -0.9003 2.4744 1.5316 0.7800 5.4142 -2.7205 1.0689 -4.1744 -3.8520 0.3967 -7.3388 -4.1932 -2.5602 -6.3705 6.6232 -3.7215 15.1423 2.5341 -1.4660 5.8155 0.0000 -0.0000 0.0000 -61.5073 -42.3789 39.6902 116.4047 -57.1943 -82.6517 -0.0000 0.0000 -67.0826 -9.2605 24.2365 -3.8292 -7.1250 0.0000 -0.0000 -37.7241 50.1883 -5.5189 0.0000 -0.0000 0.0000 84.5412 -11.4463 29.5630 -17.3023 27.2546 -4.2249 0.0000 0.0000 18.9445 -5.0825 9.2415 -0.8183 7.1250 -0.0000 -0.0000 15.5684 -20.8334 9.3593
2.7096 17.6853 0.0915 -174.1210 65.5410 -173.9930 0.0000 0.0000 0.0000 -14.5119 -7.5736 -7.6430 0.8942 6.0272 16.8634 -0.9942 -17.7905 2.3153 0.4395 4.2540 11.7923 0.0000 0.0000 0.0000 21.3132 -13.2775 5.5627 0.0000 0.0000 -0.0000 -0.9697 -6.7132 -22.1910 -0.0320 -1.1541 3.1729 1.6167 0.7607 5.4770 -2.6852 1.0518 -4.1851 -3.8629 0.3834 -7.3874 -4.2217 -2.4900 -6.3643 6.6264 -3.6234 15.3918 2.5492 -1.4119 5.8873 0.0000 -0.0000 0.0000 -60.2479 -44.6177 37.7448 118.0885 -56.7982 -84.0639 -0.0000 0.0000 -68.2347 -9.6080 24.5728 -4.0267 -7.1250 0.0000 -0.0000 -38.2528 50.4054 -5.8471 0.0000 -0.0000 0.0000 84.3428 -11.5664 29.8803 -17.3804 27.3565 -4.2607 0.0000 0.0000 18.8715 -5.0133 9.1605 -0.8001 7.1250 -0.0000 -0.0000 15.6243 -20.9133 9.3661
2.7044 17.6851 0.0964 -173.9860 65.2685 -173.8240 0.0000 0.0000 0.0000 -14.4055 -7.6560 -7.8208 0.9051 6.0629 16.9670 -1.0166 -17.9547 2.4641 0.4279 4.1982 11.6350 0.0000 0.0000 0.0000 21.4423 -13.5126 5.4294 0.0000 -0.0000 0.0000 -0.9609 -6.7385 -22.1311 -0.0283 -1.0859 2.9853 1.7319 0.7592 5.5480 -2.6865 1.0604 -4.2236 -3.9336 0.3797 -7.4679 -4.2897 -2.4250 -6.1850 6.7047 -3.5369 15.4713 2.5943 -1.3663 5.8783 -0.0000 0.0000 0.0000 -58.9374 -46.7749 35.7507 119.3764 -56.4738 -85.1395 -0.0000 0.0000 -69.4281 -10.2715 24.8163 -4.3495 -7.1250 0.0000 -0.0000 -38.9905 50.4946 -6.0902 -0.0000 0.0000 0.0000 84.2296 -11.7126 30.0159 -17.4266 27.4167 -4.2819 0.0000 0.0000 18.9060 -4.8957 9.0732 -0.7739 7.1250 -0.0000 -0.0000 15.7147 -21.0002 9.3924
2.6976 17.6782 0.1016 -173.8770 64.9920 -173.7090 0.0000 0.0000 0.0000 -14.3115 -7.7725 -7.9870 0.9209 6.1139 17.1152 -1.0372 -18.0967 2.6332 0.4344 4.2294 11.7230 0.0000 0.0000 0.0000 21.5715 -13.7695 5.3363 0.0000 0.0000 -0.0000 -0.9698 -6.6353 -22.1371 -0.0195 -0.9008 2.4758 1.8601 0.7664 5.6486 -2.7207 1.0804 -4.2598 -4.0488 0.3796 -7.5616 -4.2344 -2.3756 -5.8980 6.7153 -3.4751 15.4453 2.5954 -1.3343 5.8158 0.0000 -0.0000 0.0000 -57.4332 -48.8418 33.6963 120.4098 -56.1998 -85.9996 -0.0000 0.0000 -70.7172 -10.7651 25.0137 -4.5963 -7.1250 0.0000 -0.0000 -39.5511 50.5725 -6.2905 0.0000 -0.0000 0.0000 84.1801 -11.8947 30.1291 -17.4877 27.4962 -4.3101 0.0000 0.0000 18.8284 -4.7106 9.0059 -0.7390 7.1250 -0.0000 -0.0000 15.8506 -21.0690 9.4544
2.6923 17.6744 0.1087 -173.8560 64.7082 -173.7260 0.0000 0.0000 0.0000 -14.2552 -7.8294 -8.1037 0.9363 6.1636 17.2598 -1.0620 -18.2594 2.8737 0.4585 4.3437 12.0457 0.0000 0.0000 0.0000 21.6434 -14.0576 5.2966 0.0000 0.0000 -0.0000 -0.9845 -6.4910 -22.1659 -0.0215 -0.9477 2.6048 1.8783 0.7430 5.7664 -2.7278 1.0499 -4.2272 -4.0655 0.3625 -7.5975 -4.1960 -2.3101 -5.7419 6.7165 -3.3879 15.3881 2.5965 -1.2918 5.7651 -0.0000 0.0000 0.0000 -55.7196 -50.9074 31.3177 121.1762 -55.9883 -86.6358 -0.0000 0.0000 -71.9503 -10.9947 25.2600 -4.7393 -7.1250 0.0000 -0.0000 -39.9231 50.7315 -6.5439 -0.0000 0.0000 0.0000 84.0414 -11.9560 30.3909 -17.5269 27.5471 -4.3282 0.0000 0.0000 18.6413 -4.5907 8.9895 -0.7188 7.1250 -0.0000 -0.0000 15.9361 -21.0873 9.5026
